<?xml version="1.0" encoding="UTF-8" standalone="no"?>
<!-- Created with Inkscape (http://www.inkscape.org/) -->

<svg
   xmlns:dc="http://purl.org/dc/elements/1.1/"
   xmlns:cc="http://creativecommons.org/ns#"
   xmlns:rdf="http://www.w3.org/1999/02/22-rdf-syntax-ns#"
   xmlns:svg="http://www.w3.org/2000/svg"
   xmlns="http://www.w3.org/2000/svg"
   xmlns:sodipodi="http://sodipodi.sourceforge.net/DTD/sodipodi-0.dtd"
   xmlns:inkscape="http://www.inkscape.org/namespaces/inkscape"
   width="210mm"
   height="297mm"
   viewBox="0 0 210 297"
   version="1.1"
   id="svg72"
   inkscape:version="0.92.3 (2405546, 2018-03-11)"
   sodipodi:docname="dessin.svg">
  <defs
     id="defs66" />
  <sodipodi:namedview
     id="base"
     pagecolor="#ffffff"
     bordercolor="#666666"
     borderopacity="1.0"
     inkscape:pageopacity="0.0"
     inkscape:pageshadow="2"
     inkscape:zoom="0.35"
     inkscape:cx="-64.285714"
     inkscape:cy="560"
     inkscape:document-units="mm"
     inkscape:current-layer="layer1"
     showgrid="false"
     inkscape:window-width="1366"
     inkscape:window-height="705"
     inkscape:window-x="-8"
     inkscape:window-y="-8"
     inkscape:window-maximized="1" />
  <metadata
     id="metadata69">
    <rdf:RDF>
      <cc:Work
         rdf:about="">
        <dc:format>image/svg+xml</dc:format>
        <dc:type
           rdf:resource="http://purl.org/dc/dcmitype/StillImage" />
        <dc:title></dc:title>
      </cc:Work>
    </rdf:RDF>
  </metadata>
  <g
     inkscape:label="Calque 1"
     inkscape:groupmode="layer"
     id="layer1">
    <path
       style="fill:#000080;stroke-width:0.26458332"
       id="path74"
       d="m -170.01331,100.56934 c -2.43093,-0.38488 -4.89457,-0.49213 -7.35097,-0.572796 -2.888,-0.07336 -5.7772,-0.08321 -8.66599,-0.08787 -3.77403,0.217426 -7.41087,1.429106 -10.94671,2.694656 -3.9223,1.55572 -7.83816,3.12361 -11.75921,4.68333 -3.24304,1.23935 -6.47608,2.51656 -9.52966,4.18124 -1.04167,0.56787 -4.1289,2.33808 -3.07991,1.78384 2.02819,-1.0716 4.01245,-2.22436 6.01868,-3.33654 -5.05067,3.22298 -10.08701,6.47793 -14.94246,9.99051 -2.89753,2.06941 -5.53243,4.47874 -7.9116,7.1224 -2.51577,3.03315 -4.60796,6.41765 -6.30036,9.97224 -1.25821,2.97717 -1.98594,6.14414 -2.78284,9.26732 -0.82965,3.85658 -1.52314,7.77579 -1.58989,11.72829 0.24954,2.72503 1.51268,5.16857 2.74612,7.56025 1.36412,2.80002 2.77396,5.54447 4.94241,7.80491 2.49651,2.5334 5.6745,4.16351 8.77109,5.82905 2.17556,1.07033 4.37397,2.10782 6.68692,2.84755 2.86347,0.79334 5.81576,1.01918 8.76851,1.1966 5.05208,0.28675 10.11808,0.0408 15.15782,-0.34666 5.01036,-0.58327 9.9454,-1.68908 14.89094,-2.66798 4.55049,-0.93613 8.9006,-2.60171 13.32481,-3.98431 3.96463,-1.43068 8.02672,-2.51249 12.11556,-3.51683 3.07478,-0.64348 6.03012,-1.73719 9.11389,-2.3345 2.5236,-0.3229 4.94101,-1.12156 7.31781,-1.99261 0.31462,-0.10119 0.62922,-0.20238 0.94383,-0.30357 0,0 -8.80575,6.83739 -8.80575,6.83739 v 0 c -0.30451,0.10336 -0.60902,0.20671 -0.91352,0.31007 -2.39432,0.81837 -4.84734,1.44065 -7.34825,1.83588 -3.01438,0.71304 -5.96989,1.65863 -9.00433,2.29365 -4.05606,1.01051 -8.06226,2.17592 -12.01829,3.52982 -4.43387,1.4191 -8.8255,3.03573 -13.41487,3.89651 -4.94578,0.94356 -9.87629,2.05681 -14.89779,2.51134 -5.10747,0.3497 -10.23649,0.59709 -15.35378,0.31176 -3.0646,-0.1806 -6.15596,-0.40622 -9.10306,-1.33238 -2.30328,-0.85847 -4.5361,-1.89293 -6.69835,-3.06188 -3.16087,-1.75573 -6.35237,-3.55773 -8.93414,-6.13103 -0.40553,-0.43062 -0.83988,-0.8358 -1.21658,-1.29184 -1.66331,-2.01364 -2.64783,-4.50227 -3.93887,-6.74614 -1.33719,-2.54587 -2.60671,-5.17116 -2.97035,-8.06002 0.0486,-4.04533 0.85737,-8.02316 1.58619,-11.99068 0.6802,-3.18844 1.39552,-6.40133 2.60598,-9.43629 1.67141,-3.62414 3.78734,-7.04686 6.17575,-10.24212 2.29632,-2.81842 5.02485,-5.26274 7.95175,-7.41173 4.88153,-3.61621 10.03962,-6.84399 15.13458,-10.14731 8.15133,-4.82619 16.09172,-10.07674 25.08375,-13.22155 3.92441,-1.558818 7.82916,-3.168942 11.78488,-4.647005 3.63738,-1.252638 7.38325,-2.408376 11.26343,-2.467777 2.9106,0.0021 5.82233,-0.01614 8.73148,0.09226 2.51495,0.114324 5.02786,0.271193 7.52679,0.588159 0,0 -9.16544,6.462393 -9.16544,6.462393 z"
       inkscape:connector-curvature="0" />
    <path
       style="fill:#ff0000;stroke:#000000;stroke-width:0.26458332px;stroke-linecap:butt;stroke-linejoin:miter;stroke-opacity:1"
       d="m -207.13095,143.54167 c -21.16667,4.53571 0,0 0,0 z"
       id="path4584"
       inkscape:connector-curvature="0" />
    <path
       style="fill:#ff0000;stroke-width:0.26458332"
       id="path4586"
       d="m -229.33564,145.10314 c 2.72348,-1.48837 5.6161,-2.64829 8.50677,-3.76951 2.39997,-1.10361 5.06473,-1.60774 7.33823,-2.9762 1.96059,-1.09141 3.96181,-2.08401 5.92831,-3.16677 2.68258,-1.23622 5.48614,-2.21316 8.31965,-3.04518 2.58158,-0.90165 4.96748,-2.18636 7.59536,-2.96462 3.19242,-0.78397 6.49061,-0.78357 9.73105,-1.27068 4.00453,-0.738 7.99468,-1.53652 11.96746,-2.4294 2.55827,-0.70763 5.12242,-1.38197 7.75994,-1.70776 1.89095,-0.17442 3.79408,-0.13509 5.69103,-0.13764 1.49765,0.12622 2.71297,0.73205 2.59345,2.36069 -0.65411,0.85298 -0.93595,1.86885 -1.33963,2.84528 -0.59566,1.33602 -0.68809,2.79565 -0.76909,4.23494 -0.18213,6.10035 1.31643,2.05022 -10.01593,7.3506 0.13453,-1.11254 -0.2453,-1.51525 -1.27759,-1.75694 -1.35442,-0.21351 -2.73216,-0.19346 -4.0994,-0.19507 -1.51903,0.006 -3.03803,0.0151 -4.55706,0.0201 -1.51451,0.004 -3.02902,0.005 -4.54353,0.005 -1.53888,-0.002 -3.07778,0.006 -4.61661,-0.007 -1.52939,0.01 -3.01608,0.44734 -4.53917,0.61516 -1.21016,0.5321 -2.50331,0.71488 -3.80795,0.82371 -1.14177,0.5781 -2.4749,0.46336 -3.63321,0.92897 -1.23752,0.47024 -2.56432,0.5544 -3.87287,0.62326 -1.49319,0.26128 -2.91293,0.76188 -4.38069,1.12146 -1.57824,0.15113 -3.03333,0.70289 -4.51218,1.22696 -0.24345,0.1183 -0.49311,0.22459 -0.73034,0.3549 -1.09085,0.59922 -0.3456,0.30539 -1.48181,0.83997 -0.73622,0.34638 -1.49016,0.53768 -2.21093,0.91753 -4.63057,2.118 11.2098,-6.49655 8.40636,-4.87413 -3.37994,1.95606 -6.78239,3.87296 -10.17599,5.80523 -8.11077,4.61817 32.13016,-18.53315 -2.05315,1.19234 -1.57022,0.91137 -3.35302,1.17046 -5.05712,1.70235 -1.34829,0.76122 -2.80804,1.27792 -4.17163,2.00674 -1.5792,0.46196 -3.03677,1.2005 -4.64574,1.56467 -1.41747,0.27258 -2.86429,0.24916 -4.29983,0.30736 -0.11565,0.008 -0.24065,0.0703 -0.34695,0.024 -0.14427,-0.0628 -0.25985,-0.19072 -0.34301,-0.3243 -0.58117,-0.93361 -0.26692,-1.38314 0.54573,-1.8997 0.90046,-0.72588 1.86512,-1.34958 2.81615,-2.00267 33.53052,-19.1541 -22.3659,12.8495 11.07804,-6.35046 3.0415,-1.74612 -6.06749,3.51931 -9.11683,5.25169 -0.15996,0.0909 0.28688,-0.23264 0.4457,-0.32548 3.34508,-1.95541 6.70894,-3.8785 10.06341,-5.81776 0.19544,-0.0517 0.40023,-0.0762 0.58633,-0.15524 0.51395,-0.21823 1.94804,-1.0924 1.46402,-0.814 -28.44253,16.35962 21.98973,-12.65708 -6.17523,3.493 28.32181,-16.26026 1.99498,-1.14499 2.07086,-1.18985 3.36886,-1.99173 8.24022,-5.75478 12.8436,-6.82594 1.30712,-0.17243 2.51742,-0.68376 3.7104,-1.20381 1.40416,-0.21049 2.65554,-0.88246 3.99638,-1.30702 1.68093,-0.34185 3.33701,-0.77331 5.01701,-1.12144 1.48044,-0.0842 2.86177,-0.49004 4.2943,-0.81266 1.5969,-0.16901 3.20527,-0.4481 4.73123,-0.95858 1.53619,-0.45835 3.10898,-0.70408 4.65949,-1.10171 1.24743,-0.7047 2.57638,-1.21704 3.86144,-1.83807 1.38519,-0.40594 2.71345,-0.96875 4.10317,-1.35533 0.89149,-0.29619 1.85665,-0.16431 2.76381,-0.3202 0.40928,-0.0703 0.7947,-0.24165 1.19473,-0.35317 1.47573,-0.3515 3.00655,-0.36041 4.51564,-0.40645 1.08106,-0.0273 2.1625,-0.0306 3.24384,-0.0338 0,0 -9.00177,6.5464 -9.00177,6.5464 v 0 c -1.07012,0.007 -2.14051,0.0136 -3.20983,0.0598 -1.49263,0.0785 -2.98436,0.19886 -4.42768,0.6161 -1.29679,0.27288 -2.65065,0.25568 -3.90643,0.72853 -1.33612,0.47802 -2.71521,0.83333 -4.00031,1.44483 -1.32317,0.56612 -2.57267,1.32315 -3.9787,1.67358 -1.54229,0.3781 -3.11935,0.61041 -4.62961,1.11917 -1.59105,0.36932 -3.19507,0.64889 -4.79826,0.95161 -1.40973,0.35185 -2.84728,0.47312 -4.26832,0.77127 -1.64867,0.3878 -3.32709,0.67586 -4.92964,1.2317 -1.32049,0.52914 -2.68623,0.88914 -4.01155,1.39598 -1.20407,0.48893 -2.48934,0.73906 -3.74379,1.06471 -0.83085,0.29211 -3.46535,1.70868 -2.28949,1.02184 2.84652,-1.66271 11.41775,-6.5963 8.55797,-4.95649 -6.02932,3.45725 -19.60331,11.37002 -2.11106,1.1874 -34.64086,20.1753 21.95475,-12.59686 -12.72008,7.4216 -0.69099,0.39893 -1.43568,0.65673 -2.13139,1.04159 23.87806,-13.91278 -1.01207,0.64134 -1.38284,0.90105 -2.86377,2.00595 12.15738,-6.91125 9.07951,-5.2524 -1.67767,0.90419 -23.72467,13.70305 -1.01633,0.53657 -1.00458,0.5573 -1.92523,1.21105 -2.84315,1.88749 -0.21889,0.20412 -0.71351,0.71335 -1.08899,0.40997 -0.28674,-0.23169 -0.48582,-0.63378 -0.42737,-0.66415 0.0862,-0.0448 0.19424,0.007 0.29136,0.0104 1.38012,-0.0137 2.7697,-0.1168 4.10308,-0.49525 1.52799,-0.49212 3.03187,-1.08884 4.50259,-1.72705 1.40593,-0.64496 2.80041,-1.33873 4.26893,-1.8283 1.71341,-0.45106 3.38387,-0.99614 4.91241,-1.91869 -2.9291,1.69664 -11.72098,6.77858 -8.78729,5.08991 3.41372,-1.96498 6.81246,-3.95592 10.22736,-5.91883 0.21981,-0.12635 0.89494,-0.4765 0.67606,-0.34855 -2.97955,1.74187 -12.01835,6.78815 -8.95892,5.19076 17.66536,-9.22339 6.14786,-4.00619 10.74559,-6.07926 1.53174,-0.59632 2.93759,-1.43425 4.47094,-2.02142 1.4937,-0.51862 3.02872,-0.82533 4.57071,-1.1604 1.48295,-0.41968 2.97626,-0.8335 4.51712,-0.97463 1.28481,-0.13673 2.53564,-0.39536 3.76156,-0.81049 1.2541,-0.2153 2.47014,-0.57537 3.72339,-0.77911 1.28674,-0.19731 2.51244,-0.60942 3.79215,-0.82774 1.52626,-0.22713 3.04247,-0.57489 4.59737,-0.48031 1.54519,-0.0127 3.09045,-0.005 4.63568,-0.007 1.51359,-8e-4 3.02719,-0.002 4.54077,-0.007 1.52191,-0.006 3.04385,-0.0188 4.56577,-0.0101 1.46072,0.0222 2.95484,0.0171 4.35624,0.48297 1.22529,0.57676 2.08301,1.47624 2.01126,2.91616 -11.64717,6.40851 -10.01148,8.9153 -9.92192,2.74282 0.0593,-1.52273 0.0726,-3.08287 0.54611,-4.54528 0.13896,-0.34988 0.33944,-0.6744 0.46402,-1.02965 0.22805,-0.65025 0.22881,-1.40144 0.75449,-1.92024 1.28313,-0.0981 -1.10942,-0.55269 -1.28364,-0.43044 -1.8714,0.005 -3.74937,0.013 -5.60793,0.25955 -2.54141,0.37815 -5.02172,1.03669 -7.51801,1.63481 -3.99256,0.84285 -7.99385,1.64595 -12.01096,2.36387 -3.24079,0.44192 -6.55537,0.50279 -9.70044,1.48066 -2.57897,0.90514 -4.99248,2.21379 -7.6283,2.9656 -2.7824,0.87393 -5.56092,1.83568 -8.14693,3.19719 -2.01894,1.10222 -4.05696,2.16959 -6.08464,3.25522 -2.36978,1.02071 -4.8557,1.73304 -7.22909,2.74762 -2.96527,1.17779 -5.86781,2.49487 -8.70044,3.96538 0,0 8.75324,-6.91783 8.75324,-6.91783 z"
       inkscape:connector-curvature="0" />
    <path
       style="fill:#ff0000;stroke-width:0.26458332"
       id="path4588"
       d="m -237.78947,153.09617 c 0.27556,-1.54216 0.78711,-3.00166 1.49997,-4.39133 0.77966,-1.08773 1.23031,-2.34709 1.74162,-3.57147 0.46331,-1.29001 1.20671,-2.42453 1.94391,-3.56541 0.47093,-1.08514 1.02167,-2.11105 1.66297,-3.10362 0.66896,-1.06585 1.77574,-1.69701 2.72324,-2.48034 0.8541,-0.66382 1.67543,-1.38116 2.42637,-2.16098 0.88907,-0.64564 1.68199,-1.34682 2.38524,-2.19686 0.96605,-1.29586 2.10394,-2.43619 3.25522,-3.56365 0.86788,-0.90447 1.85378,-1.65555 2.89578,-2.34525 3.40816,-2.76455 1.00029,-0.84814 10.47732,-6.20464 0.17583,-0.0994 0.39937,-0.0772 0.58573,-0.155 0.54984,-0.22962 0.9874,-0.5102 1.57534,-0.68166 0.99083,-0.8009 2.28143,-0.77412 3.43262,-1.15623 0.22968,-0.0618 0.46794,-0.0976 0.68904,-0.18527 0.46754,-0.25575 0.68806,-0.39538 1.18455,-0.59142 0.64156,-0.25332 1.29754,-0.37463 1.97422,-0.48697 1.67293,-0.0863 3.31161,-0.16268 4.95827,-0.46711 1.55712,-0.29628 3.13955,-0.39013 4.72036,-0.44318 1.00347,-0.11346 2.04045,0.0844 3.04115,-0.0306 0.42467,-0.0488 0.82936,-0.20752 1.24412,-0.31098 1.3059,-0.28293 2.68618,-0.5098 3.89121,-1.10469 1.25013,-0.59405 2.62675,-0.71649 3.98784,-0.8027 0.19926,-0.0638 0.39853,-0.12756 0.5978,-0.19134 0,0 -8.89527,6.75376 -8.89527,6.75376 v 0 c -0.22063,0.0261 -0.44127,0.0521 -0.6619,0.0782 -1.3232,0.17058 -2.59286,0.49565 -3.8138,1.04579 -1.32681,0.36848 -2.64892,0.74532 -4.0117,0.96144 -1.44308,0.21559 -2.90665,0.0887 -4.36009,0.18816 -1.55274,0.0887 -3.09792,0.25237 -4.62825,0.53686 -1.64697,0.23509 -3.32394,0.17447 -4.95238,0.5424 -1.29788,0.36833 -2.48928,1.01009 -3.80962,1.30952 -1.19674,0.27706 -2.29165,0.719 -3.39738,1.24513 -0.5174,0.23651 -1.04707,0.45942 -1.55977,0.70276 -0.17125,0.0813 -0.66098,0.37147 -0.49749,0.27553 9.45708,-5.54962 11.97962,-7.22248 8.61096,-5.00394 -0.90878,0.8878 -2.16095,1.30765 -2.96611,2.31933 -1.22107,0.98718 -2.32164,2.12564 -3.29144,3.36316 -0.65086,0.87746 -1.27145,1.9134 -2.2943,2.36909 -0.86928,0.67091 -1.55937,1.55142 -2.39687,2.26276 -0.99496,0.65882 -1.89059,1.46494 -2.87593,2.1369 -0.67363,0.94296 -1.36956,1.88813 -1.70465,3.00982 -0.57962,1.22447 -1.60234,2.17688 -2.01679,3.49275 -0.58163,1.22823 -0.90258,2.57529 -1.65583,3.71453 -0.89549,1.13193 -1.44719,2.56426 -1.62215,3.99255 0,0 -10.09313,4.89421 -10.09313,4.89421 z"
       inkscape:connector-curvature="0" />
    <path
       style="fill:#ff0000;stroke-width:0.26458332"
       id="path4590"
       d="m -227.07905,149.76249 c -0.0561,1.74024 0.44744,3.37141 1.14371,4.93945 0.59587,1.17402 1.71305,1.3132 2.90302,1.42404 1.45731,0.0817 2.91811,0.052 4.37689,0.0404 1.50288,-0.0777 3.03179,0.13365 4.5118,-0.16478 1.49817,-0.33783 3.02597,-0.4788 4.5562,-0.56045 1.52844,0.0101 3.00548,-0.056 4.50235,-0.34795 1.5084,-0.29551 3.04367,-0.38313 4.57627,-0.43587 1.48381,-0.37463 2.9965,-0.57676 4.51981,-0.69259 1.31212,-0.32415 2.55212,-0.84338 3.85672,-1.18649 1.40488,-0.12123 2.71295,-0.54243 4.07571,-0.85534 1.3801,-0.0909 2.67199,-0.48486 4.02378,-0.73144 1.54228,-0.2534 3.10662,-0.30142 4.66603,-0.33321 1.52519,-0.0204 3.05059,-0.0143 4.57587,-0.0118 1.32424,0.151 2.21893,-0.81488 3.4309,-1.1713 1.35472,-0.3025 2.75043,-0.31697 4.13188,-0.34062 0.94302,-0.007 0.49773,0.001 1.33594,-0.0229 0,0 -9.0444,6.58666 -9.0444,6.58666 v 0 c -0.79439,-0.006 -0.36536,-0.009 -1.28703,0.0162 -1.33453,0.0635 -2.69273,0.13775 -3.94402,0.6527 -1.19692,0.54901 -2.26714,1.01508 -3.63545,0.82532 -1.51769,-10e-4 -3.03576,-0.006 -4.55298,0.0379 -1.52785,0.0602 -3.0596,0.15697 -4.55649,0.49072 -1.33517,0.30364 -2.681,0.49116 -4.01781,0.78413 -1.33463,0.35529 -2.70348,0.49891 -4.03074,0.8831 -1.29907,0.42693 -2.60595,0.8823 -3.97681,1.00778 -1.52547,0.1729 -3.02366,0.51038 -4.55162,0.65058 -1.50881,0.0899 -3.00972,0.25358 -4.49507,0.54087 -1.51589,0.21395 -3.04409,0.14771 -4.56893,0.26236 -1.51774,0.12834 -3.01626,0.37142 -4.5202,0.60674 -1.52823,0.0765 -3.05928,0.0371 -4.589,0.0623 -1.49893,0.006 -3.00715,0.0377 -4.4953,-0.17155 -1.51534,-0.31236 -2.78328,-0.92073 -3.4823,-2.38904 -0.72375,-1.70547 -1.19974,-3.46023 -1.43539,-5.30229 0,0 9.99666,-5.09356 9.99666,-5.09356 z"
       inkscape:connector-curvature="0" />
    <path
       style="fill:#ffff00;stroke-width:0.26458332"
       id="path4592"
       d="m -255.80524,99.11368 c -0.0827,1.88543 -0.0724,3.77353 -0.0637,5.66032 0.0114,1.69897 0.0201,3.39795 0.0246,5.09695 0.0915,1.38291 -0.28312,2.72017 -0.49949,4.07231 -0.19977,1.41167 -0.22564,2.83942 -0.24785,4.26256 -0.15626,1.52153 -0.39303,3.0403 -0.65108,4.54879 -0.44414,1.44377 -0.65098,2.92892 -0.77187,4.42959 -0.12133,1.52692 -0.048,3.06061 -0.14914,4.5875 -0.24625,1.30624 -0.47744,2.6082 -0.59366,3.93338 -0.10303,1.4683 -0.10581,2.94113 -0.11165,4.4123 -0.002,1.51247 7.9e-4,3.02493 0.002,4.5374 10e-4,1.51257 0.002,3.02514 0.002,4.53771 1.2e-4,1.51194 9e-5,3.02388 8e-5,4.53581 -0.0217,1.50247 0.0496,3.00746 -0.0467,4.50758 -0.25951,1.33338 -0.48412,2.66527 -0.61254,4.01819 -0.0467,1.59493 -0.0995,3.16779 -0.38974,4.73878 -0.38603,1.12268 -0.48175,2.25829 -0.50152,3.43631 0.077,1.34356 -0.27614,2.64639 -0.47577,3.9632 -0.27326,2.06615 -0.26939,4.15701 -0.28229,6.23753 0.0917,2.24559 -0.18251,4.47018 -0.41928,6.69743 -0.24045,2.25889 -0.32567,4.52825 -0.36946,6.79809 -0.0938,2.62082 0.19489,5.24709 -0.23026,7.84382 -0.43247,1.79886 -0.83914,3.59765 -1.05485,5.43644 -0.17804,1.7162 -0.1697,3.44457 -0.17115,5.16791 0.002,1.06565 7.9e-4,0.53531 0.005,1.59101 0,0 -9.91616,5.05457 -9.91616,5.05457 v 0 c 0,-1.06079 -2.6e-4,-0.5276 0.003,-1.59957 0.008,-1.75752 0.0201,-3.51592 0.1166,-5.27128 0.18749,-1.88488 0.55388,-3.73643 1.08249,-5.55686 0.59034,-2.52872 0.35835,-5.1264 0.40876,-7.70616 0.003,-2.2815 -0.0851,-4.57247 0.20611,-6.84157 0.25961,-2.19684 0.6241,-4.38798 0.50046,-6.60899 0.018,-2.10198 0.0183,-4.20611 0.11215,-6.306 0.14589,-1.28945 0.5256,-2.54571 0.54306,-3.83665 -0.0132,-1.21164 -0.17499,-2.51715 0.4113,-3.62188 0.30067,-1.54086 0.57136,-3.04405 0.47506,-4.6288 0.0505,-1.37305 0.18557,-2.74285 0.54842,-4.07313 0.31764,-1.42845 0.0447,-2.92898 0.13415,-4.38296 2e-5,-1.51191 5e-5,-3.02381 0,-4.53572 -1.1e-4,-1.51232 -2.4e-4,-3.02465 0,-4.53698 0,-1.51345 -0.004,-3.0269 -0.004,-4.54035 0,-1.49223 -0.003,-2.98524 0.065,-4.47633 0.0782,-1.34417 0.20177,-2.68845 0.5561,-3.99282 0.32488,-1.4798 0.04,-3.03329 0.20973,-4.53705 0.0939,-1.5383 0.19828,-3.10492 0.6635,-4.58254 0.45006,-1.39188 0.40309,-2.9118 0.77671,-4.33111 0.0111,-1.461 0.0212,-2.92491 0.16571,-4.38017 0.16007,-1.32797 0.57396,-2.61471 0.59613,-3.94758 0.005,-1.70735 0.0132,-3.41468 0.0246,-5.122 0.009,-1.86514 0.0204,-3.73172 -0.0637,-5.59543 0,0 9.99666,-5.09355 9.99666,-5.09355 z"
       inkscape:connector-curvature="0" />
    <path
       style="fill:#28170b;stroke-width:0.26458332"
       id="path4594"
       d="m -262.77027,68.975903 c -1.70829,-0.05195 -3.41794,-0.03695 -5.12681,-0.03321 -1.67756,0.01056 -3.35505,0.0026 -5.03258,-0.0011 -1.94017,0.06347 -3.5111,1.004528 -5.20105,1.821852 16.85039,-8.929412 8.89746,-5.787027 5.86777,-2.956943 -0.8382,0.998497 -0.88945,2.311839 -0.95946,3.555127 -0.0399,1.046323 -0.0885,2.277792 0.943,2.830512 1.51546,0.823899 2.74098,2.063671 4.03895,3.181308 1.08362,0.996484 1.96614,2.238861 3.34388,2.833155 1.2763,0.375089 2.62404,0.354082 3.94239,0.36707 1.6265,0.02535 3.20158,0.09823 4.7591,-0.417587 1.49582,-0.515871 2.87604,-1.321609 4.33908,-1.93486 0.19315,-0.132446 0.78315,-0.512901 0.57945,-0.397331 -2.98702,1.694718 -5.94258,3.444555 -8.93149,5.135941 -0.21009,0.118888 0.384,-0.294664 0.59219,-0.416851 2.45645,-1.441685 7.62102,-4.839308 11.48542,-6.56549 -16.23547,9.803376 -9.57064,5.783263 -6.18443,3.106209 0.70108,-0.670791 1.67179,-1.450097 1.4628,-2.517074 -0.66024,-0.871178 -1.6481,-1.538973 -2.58303,-2.099696 -1.15578,-0.95935 -2.595,-1.437654 -3.86216,-2.21061 -1.05132,-0.696121 -1.99076,-1.343319 -3.24171,-1.607674 -1.37092,-0.206502 -2.76255,-0.195673 -4.14548,-0.201354 -1.33125,0.04957 -2.61199,0.476708 -3.94605,0.629243 0.35028,-0.443622 -2.61765,1.088948 -1.93831,0.70277 15.67749,-8.911878 11.18943,-6.769629 8.12901,-4.463298 -0.88567,0.734446 -0.66091,1.565518 -0.21186,2.501484 0.40084,1.033365 1.21835,1.637335 2.02619,2.31447 0.99081,0.714634 2.09516,1.21781 3.18875,1.751533 1.20948,0.502087 2.5277,0.552503 3.81817,0.604608 1.48906,0.03829 2.97886,0.02622 4.46825,0.02162 3.26433,-1.033648 11.32626,-6.252308 -8.0731,4.71487 -0.32803,0.185451 0.40764,-0.08207 0.45488,-0.639961 -0.67463,-0.793123 -1.72773,-0.979636 -2.70016,-1.148982 -1.38629,-0.0373 -2.69159,-0.492155 -4.05147,-0.712089 -1.25553,-0.229953 -2.43269,-0.196319 -3.62093,0.275031 -0.0503,0.07386 -0.0615,0.219292 -0.15076,0.221578 -0.10977,0.0028 -0.19518,-0.117766 -0.25281,-0.211251 -0.64503,-1.046496 -0.51482,-1.253405 0.0629,-2.118995 0.84442,-1.091621 1.39499,-2.330781 1.86158,-3.617166 0.0674,-0.16427 0.1347,-0.328536 0.20204,-0.492805 0,0 10.2363,-4.557308 10.2363,-4.557308 v 0 c -0.10174,0.128479 -0.20348,0.256961 -0.30522,0.385442 -0.60781,1.25207 -0.87552,2.662418 -1.71229,3.814149 -0.1605,0.214847 -0.20331,0.544012 -0.43706,0.675463 -0.27756,0.156085 -0.90753,-0.862899 -0.85824,-0.934993 0.0487,-0.07117 0.1723,0.0064 0.25846,0.0097 1.29641,-0.176844 2.58088,-0.110923 3.86592,0.154321 1.35235,0.277387 2.69294,0.584833 4.06451,0.756166 1.37162,0.37111 2.70869,0.907481 3.44188,2.207924 1.40932,4.769533 -6.85381,7.5994 -11.29648,7.768215 -1.50565,0.0021 -3.01284,0.01307 -4.51667,-0.07299 -1.41089,-0.113073 -2.82316,-0.298138 -4.09546,-0.966216 -1.1429,-0.598072 -2.33212,-1.122257 -3.3396,-1.945225 -0.94326,-0.755838 -1.76204,-1.611582 -2.26822,-2.730137 -0.57272,-1.159558 -1.10844,-2.549674 -0.39574,-3.756385 0.32465,-0.405228 0.41664,-0.596326 0.87413,-0.865246 4.63587,-2.725073 7.48872,-5.579792 12.20748,-6.333646 1.33787,-0.228835 2.65854,-0.599424 4.0308,-0.481005 1.45308,0.02527 2.92555,0.04188 4.33842,0.422873 1.24794,0.424625 2.27285,1.162307 3.38234,1.854036 1.30796,0.71764 2.6814,1.323893 3.86221,2.254647 1.15557,0.75152 2.39275,1.543672 3.08256,2.772609 0.48515,1.517425 0.12105,2.49012 -0.97859,3.636155 -3.43686,3.673531 -9.35329,5.008065 -12.85462,8.084804 -0.43853,0.240768 -1.74329,0.982387 -1.31132,0.730038 19.18839,-11.209467 3.15742,-1.721069 -2.44395,1.47705 -1.43569,0.67631 -2.86955,1.401554 -4.42607,1.754645 -1.6451,0.283173 -3.30731,0.242176 -4.97239,0.208225 -1.45008,-0.05205 -2.93219,-0.115284 -4.2559,-0.777703 -1.33022,-0.811443 -2.29084,-2.018226 -3.40757,-3.088616 -1.29786,-1.112864 -2.56307,-2.249787 -4.08707,-3.052691 -1.13763,-0.995643 -1.52591,-2.299005 -1.43912,-3.80151 0.0341,-1.413822 0.0515,-2.869893 0.63338,-4.185938 2.25819,-3.656685 13.75101,-6.813093 13.0674,-8.339233 1.75615,-0.849138 3.54034,-1.488517 5.52645,-1.441918 1.67858,-0.0038 3.35712,-0.01172 5.03572,-0.0011 1.73936,0.0038 3.4794,0.0176 5.21823,-0.03321 0,0 -9.07678,6.594665 -9.07678,6.594665 z"
       inkscape:connector-curvature="0" />
    <path
       style="fill:#28170b;stroke-width:0.26458332"
       id="path4596"
       d="m -249.91908,96.946142 c -1.64325,-0.12931 -3.15584,0.550251 -4.69995,0.991029 -1.64224,0.275703 -3.26814,0.594299 -4.90997,0.886335 -1.37422,0.329481 -2.90536,0.639003 -4.23661,1.123199 -1.4219,0.490195 -2.92018,0.625825 -4.41111,0.711265 -1.30862,0.45706 -2.6712,0.81363 -3.93522,1.37891 -1.40677,0.54335 -2.89301,0.78829 -4.34642,1.17372 -1.5516,0.31796 -3.10205,0.42547 -4.64354,0.78543 -0.84648,0.5747 -1.88241,0.62414 -2.82485,0.91956 -0.44112,0.13828 -0.85249,0.3586 -1.28588,0.51949 -0.58933,0.23933 -1.24124,0.23772 -1.83504,0.45837 -0.0921,0.0342 -0.34108,0.19479 -0.25622,0.14535 9.55614,-5.56866 13.16818,-5.18908 9.35175,-5.55631 0.44714,0.32874 1.38996,0.34727 1.99559,0.40342 1.36506,-0.0433 2.65242,0.39984 3.98711,0.61132 1.32332,0.32653 2.52474,0.0289 3.81439,-0.22433 0.89099,-0.0867 1.80965,-0.31328 2.71069,-0.26078 1.70433,0.0993 -0.15926,0.16877 1.19811,0.09 1.55673,0.67658 0.80723,1.69268 -0.0437,2.50153 -0.61597,0.92959 -1.51066,1.6213 -2.1659,2.5129 -0.63302,1.15381 -0.66233,2.49501 -0.71665,3.77882 -0.0385,1.50407 -0.0241,3.00889 -0.0183,4.51327 -0.0802,1.39186 0.039,2.737 0.31404,4.0971 0.1987,1.39426 0.43132,2.77346 0.71844,4.1526 0.31385,1.51129 0.40601,3.05292 0.46191,4.59141 0.0403,1.51823 0.0351,3.03718 0.0339,4.5558 -0.003,1.51204 -0.004,3.02408 -0.005,4.53612 -0.0225,1.50238 0.0488,3.00728 -0.0475,4.50731 -0.16814,1.26272 -0.46808,2.48819 -0.87448,3.69243 -0.34996,1.22479 -0.47164,2.48232 -0.87362,3.69436 -0.6118,1.05475 -0.92316,2.18055 -1.08977,3.37833 -0.014,1.30738 -0.38828,2.49466 -0.92377,3.66714 -0.52509,1.19375 -0.61616,2.49803 -0.68871,3.78248 -0.0586,1.49353 -0.0494,2.98866 -0.0473,4.48303 0.004,1.51446 0.006,3.02892 0.008,4.54338 0,1.51234 0,3.02467 0,4.53701 0.0167,1.66066 -0.0161,3.32076 -0.0295,4.98118 0.0658,2.0561 -0.0371,4.09244 -0.29929,6.13056 -0.26197,1.80712 -0.37002,3.62937 -0.43837,5.45235 -0.206,2.27993 -0.38232,4.56841 -0.80137,6.82098 -0.38631,1.66475 -0.56197,3.3595 -0.68021,5.06057 -0.1219,2.6593 -0.10909,5.32257 -0.0904,7.98389 0.0222,1.95512 0.0484,3.91017 0.0618,5.86537 0.018,1.60532 0.003,3.21052 -0.005,4.81579 0.12287,1.7834 -0.19878,3.53105 -0.43024,5.28909 -0.23836,2.48247 0.0456,-0.54015 -0.10033,1.16746 -0.003,0.0336 0,0.12949 -0.0156,0.1 -0.22786,-0.413 -0.22534,-0.87496 -0.25082,-0.86184 -3.19082,1.64482 -6.24687,3.53891 -9.3703,5.30836 5.42518,-3.20482 23.11894,-13.26684 3.44694,-1.96654 1.59827,-1.04457 3.098,-2.22591 4.67937,-3.29531 28.06829,-16.08395 0.97149,-0.54304 1.45396,-0.82036 3.39249,-1.95009 6.77011,-3.92649 10.18205,-5.84236 0.20882,-0.11726 0.45806,-0.14616 0.67253,-0.25271 0.19133,-0.0951 0.72342,-0.45443 0.53784,-0.34858 -3.03338,1.73018 -6.05477,3.48138 -9.08213,5.22208 1.13792,-1.13219 2.39863,-2.09312 3.73295,-2.98203 4.05581,-3.05781 8.50067,-5.18425 12.99401,-7.7389 -23.67391,13.62727 0.72654,-0.48235 1.10539,-0.69751 0.59901,-0.34019 0.6225,-0.15686 1.25613,-0.40641 0.37388,-0.14725 0.71424,-0.37036 1.08483,-0.5257 -3.04011,1.73063 -12.13774,6.96179 -9.12032,5.1919 3.36047,-1.9711 6.76478,-3.86648 10.14953,-5.79559 0.20546,-0.1171 0.82597,-0.46106 0.62104,-0.34303 -3.01606,1.73223 -6.03212,3.46447 -9.04818,5.1967 0.35618,-0.19453 0.1994,-0.21502 0.46575,-0.0899 -0.10313,-0.5636 -0.65204,-1.3526 -0.9025,-2.0137 -0.5011,-1.63873 -0.45613,-3.37599 -0.49808,-5.07212 0.0194,-2.25701 -0.18491,-4.50537 -0.48188,-6.74042 -0.41427,-2.30886 -0.77851,-4.61832 -0.91826,-6.96076 -0.2628,-2.1123 -0.57788,-4.21557 -0.72778,-6.34027 -0.11878,-2.03157 -0.14172,-4.06785 -0.16544,-6.10243 -0.0389,-1.58109 0.0676,-3.16631 -0.0564,-4.74473 6.43432,-19.29036 9.70386,-6.73783 10.64396,-3.28714 0.0689,0.11884 0.13789,0.23769 0.20683,0.35653 0,0 -9.70127,5.59062 -9.70127,5.59062 v 0 c -0.10776,-0.193 -0.21552,-0.386 -0.32328,-0.57899 -1.58012,-4.90739 1.0084,-2.62855 9.21224,-7.33633 0.0476,-0.0273 -0.0231,0.10718 -0.0346,0.16077 -0.1226,1.59627 -0.0338,3.19858 -0.0621,4.79761 -0.008,2.01863 -0.0117,4.0383 0.10093,6.05464 0.14338,2.13051 0.39494,4.24617 0.71718,6.35714 0.13872,2.31733 0.39742,4.62297 0.81136,6.90865 0.3649,2.25121 0.68159,4.53031 0.63928,6.81422 0.0281,1.56687 0.0236,3.16391 0.42127,4.6902 0.3336,0.91597 0.99283,1.62928 1.2857,2.56435 0.0374,0.35508 0.18507,0.67219 -0.21511,0.91399 -3.31897,2.00541 -6.69868,3.90858 -10.05697,5.84742 -0.21245,0.12266 -0.86624,0.46046 -0.65447,0.33663 2.99581,-1.75167 12.08516,-6.82398 9.00742,-5.22065 -3.43632,1.79012 -6.72274,3.85436 -10.08411,5.78155 -0.56212,0.25312 -1.15131,0.4368 -1.70219,0.71433 -0.1879,0.0947 -0.73261,0.41419 -0.55064,0.30858 8.25895,-4.79335 16.60231,-9.59658 -1.14004,0.63529 16.5666,-9.5869 9.53507,-5.82866 6.06587,-3.31527 -1.23894,0.9531 -2.75701,1.60107 -3.70396,2.89238 -3.32953,1.98871 -6.64756,3.99681 -9.98859,5.96612 -0.38105,0.22461 -1.57522,0.80374 -1.19308,0.58097 2.95566,-1.72298 11.88079,-6.79002 8.88422,-5.13923 -3.12117,1.71944 -22.17117,12.83512 -1.50254,0.79861 -1.63591,0.95593 -3.09424,2.151 -4.63615,3.24515 -3.3772,1.9777 -6.74458,3.97228 -10.13161,5.93311 -6.08317,3.52172 12.14985,-7.28218 6.77124,-3.99517 -3.41125,1.95307 -7.69125,8.20706 -10.46962,5.42646 -0.21756,-0.21774 -0.44203,-0.61162 -0.43516,-0.9439 0.008,-0.40331 0.34243,-0.76437 0.22688,-1.18873 0.1986,-1.72106 0.5864,-3.42083 0.48054,-5.16175 -0.007,-1.60291 -0.023,-3.20575 -0.007,-4.80871 0.0103,-1.97415 0.0304,-3.94822 0.0489,-5.92231 0.0164,-2.6644 0.0132,-5.3288 0.0151,-7.99324 0.0122,-1.75711 0.13377,-3.50562 0.57531,-5.21503 0.50525,-2.19085 0.72633,-4.41702 0.92675,-6.65641 0.0106,-1.85417 0.0324,-3.71111 0.33891,-5.54567 0.29469,-1.99805 0.52205,-3.97713 0.38542,-6.00369 -0.0135,-1.65039 -0.0462,-3.30047 -0.0294,-4.95113 0,-1.51211 3e-5,-3.02422 0,-4.53633 0,-1.51411 -0.003,-3.02823 -0.007,-4.54234 -0.004,-1.50807 -0.013,-3.01638 0.0169,-4.52426 0.0427,-1.3811 0.0864,-2.78119 0.48546,-4.11478 0.42002,-1.13305 1.17165,-2.11743 1.08479,-3.39574 0.10491,-1.27406 0.23529,-2.57888 0.90143,-3.70189 0.71515,-1.06215 0.68747,-2.33671 0.9493,-3.55412 0.33706,-1.18346 0.82349,-2.29588 0.9711,-3.53335 0.31766,-1.42854 0.0447,-2.92916 0.1347,-4.38323 0,-1.51226 0.003,-3.02451 0.005,-4.53677 0.003,-1.50798 0.008,-3.01614 -0.0175,-4.52397 -0.0377,-1.47892 -0.0947,-2.96335 -0.37489,-4.42013 -0.28183,-1.37936 -0.59891,-2.73996 -0.74482,-4.14274 -0.29099,-1.43111 -0.50292,-2.83589 -0.38807,-4.30542 -0.006,-1.51488 -0.0182,-3.02983 -0.004,-4.54469 0.0273,-1.41806 0.043,-2.86009 0.45513,-4.22978 0.59209,-1.47542 1.31877,-1.50107 2.04428,-2.75661 0.85664,-1.08176 -0.17203,0.12682 0.69308,-0.6549 0.0887,-0.0801 0.10064,-0.3153 0.21645,-0.28582 0.20778,0.0529 0.30896,0.29779 0.45331,0.4563 0.0569,0.0625 0.17357,0.12422 0.14902,0.20509 -0.0209,0.0686 -0.14312,0.007 -0.21466,0.0112 -1.26143,-0.1163 -2.51391,0.10163 -3.75235,0.33408 -1.35398,0.233 -2.69242,0.17001 -4.04193,-0.10308 -1.31509,-0.2554 -2.61652,-0.52731 -3.96155,-0.57288 -1.24871,-0.21507 -2.48513,-0.52595 -2.97262,-1.83732 -0.98894,-4.8429 7.69149,-5.537793 11.63193,-6.923506 1.37652,-0.48332 2.79841,-0.854342 4.18428,-1.30293 1.53466,-0.295026 3.10996,-0.370173 4.61261,-0.831696 1.43708,-0.381831 2.90859,-0.64348 4.27241,-1.265161 1.36075,-0.437581 2.68299,-1.057714 4.13233,-1.129379 1.45728,-0.150011 2.88928,-0.421098 4.27546,-0.908715 1.42222,-0.351763 2.81862,-0.810577 4.27653,-0.999333 1.62333,-0.316029 3.26888,-0.536163 4.86126,-0.989174 1.6184,-0.483725 3.25729,-0.839243 4.96043,-0.789284 0,0 -9.07678,6.594668 -9.07678,6.594668 z"
       inkscape:connector-curvature="0" />
    <path
       style="fill:#28170b;stroke-width:0.26458332"
       id="path4598"
       d="m -248.14856,175.81425 c 1.20164,1.72043 2.39867,3.45005 3.72175,5.07982 1.17876,1.26681 2.24822,2.63847 3.4857,3.8485 1.02635,0.73592 2.34199,0.87594 3.54528,1.1835 1.4529,0.49731 2.87346,1.01347 4.26392,1.66948 1.44439,0.72911 2.88279,1.51452 4.39623,2.09422 1.61742,0.58784 3.27941,0.89869 4.98588,1.08303 1.68963,0.15245 3.38742,0.15591 5.0824,0.15831 1.73787,-0.0988 3.43777,0.30056 5.15392,0.51174 1.5504,0.45803 3.13149,0.74538 4.73923,0.89057 1.49943,0.10595 3.00365,0.1026 4.50597,0.10457 1.49594,-0.0652 3.01765,0.14647 4.49076,-0.15061 1.44763,-0.1216 2.76595,-0.63619 4.15161,-1.00389 1.32319,-0.0939 2.53952,-0.51406 3.81812,-0.81026 0.16484,-0.0945 0.65979,-0.37738 0.49452,-0.28359 -3.05395,1.7332 -6.09726,3.48528 -9.16061,5.20184 -0.31801,0.1782 0.56359,-0.468 0.87932,-0.65021 3.3578,-1.93784 6.70994,-3.88684 10.10845,-5.75238 0.18165,-0.0997 0.40525,-0.0867 0.60788,-0.13012 1.18987,-0.16921 2.28275,-0.69581 3.36995,-1.17769 -3.04699,1.73514 -6.08934,3.47847 -9.14099,5.20542 -0.1594,0.0902 0.30489,-0.20351 0.46363,-0.29486 3.35815,-1.93257 6.69993,-3.89439 10.08655,-5.77663 0.17663,-0.0982 0.39968,-0.077 0.58606,-0.15508 0.17198,-0.0721 0.63979,-0.38335 0.47791,-0.29078 -3.08893,1.76645 -6.17284,3.54168 -9.25926,5.31252 1.16201,0.3853 -0.70371,0.97398 -0.9555,1.11891 -1.39431,0.7372 -1.8943,0.76348 -2.12076,-1.1133 3.19256,-3.29173 9.39297,-5.9622 12.3265,-7.66174 0.21964,-0.1232 0.87709,-0.49538 0.65893,-0.36959 -2.94017,1.69531 -11.74119,6.81436 -8.82498,5.07816 3.74346,-2.22869 7.92982,-5.63204 12.53896,-6.63665 1.21418,-0.43545 2.20422,-1.18196 3.46402,-1.49847 1.40496,-0.16498 2.74482,-0.58984 4.14579,-0.79946 1.53725,-0.0754 3.00527,-0.52308 4.52376,-0.7468 1.22072,-0.37776 2.18486,-1.13732 3.42734,-1.46037 1.40374,-0.17621 2.74254,-0.60351 4.14366,-0.81523 1.53731,-0.0771 3.00546,-0.52465 4.52418,-0.7484 1.47967,-0.10394 2.8407,-0.66581 4.09954,-1.42037 1.31702,-0.72087 2.79596,-0.90795 4.26781,-1.02394 1.33336,-0.13233 2.61134,-0.53926 3.95663,-0.68475 0.18637,-0.0732 0.38799,-0.11559 0.5591,-0.21957 0.1589,-0.0966 0.57734,-0.46348 0.41519,-0.37251 -3.07125,1.72294 -6.08013,3.55562 -9.15357,5.27464 -0.1401,0.0784 0.24368,-0.2133 0.33739,-0.34363 0.24925,-0.34662 0.29026,-0.62292 0.4092,-1.02816 0.33793,-1.34563 0.12113,-2.60827 -0.35736,-3.87769 -0.32,-1.18333 -0.80895,-2.25781 -1.43844,-3.30088 -0.65989,-0.89978 -1.58179,-0.91115 -2.57385,-0.70128 -1.2473,0.32029 -2.57255,0.13783 -3.79295,0.52946 -1.27586,0.42326 -2.61884,0.51964 -3.9514,0.58972 -1.48986,0.0576 -2.98121,0.052 -4.47191,0.0513 -1.38992,-0.15555 -2.68388,0.3267 -4.03889,0.53534 -1.37475,0.26432 -2.81294,0.005 -4.1598,0.37341 -1.28798,0.38662 -2.63024,0.48369 -3.96545,0.55138 -1.38206,0.22723 -2.57017,0.93296 -3.92769,1.25716 -1.31746,0.3511 -2.3522,0.75327 -3.74005,0.9256 -1.10612,0.63225 -2.4317,0.51492 -3.57492,0.98064 -1.16965,0.31358 -2.16656,0.91785 -3.35915,1.17406 -1.39776,0.2299 -2.81902,0.23646 -4.23172,0.25116 -1.5111,0.007 -3.02223,-2.2e-4 -4.53333,-0.004 -1.27228,0.37744 -2.57553,0.56402 -3.8948,0.6662 -1.55455,0.0717 -3.11421,0.17863 -4.65642,-0.056 -1.66246,-0.30246 -3.34138,-0.47201 -5.02741,-0.56048 -1.52429,-0.0627 -3.05025,-0.06 -4.57553,-0.0605 -1.89322,-0.0247 -3.78654,-0.0159 -5.67983,-0.008 -1.74217,0.0144 -3.48431,0.002 -5.2265,0.003 -1.82667,-0.15883 -3.37432,-1.15452 -4.9001,-2.08032 -1.40824,-0.62666 -2.62109,-1.58683 -3.70877,-2.66423 -1.06295,-0.82293 -2.02503,-1.70086 -2.96872,-2.65273 -0.78947,-1.11846 -1.40457,-2.28437 -2.35744,-3.28375 -0.96815,-1.10782 -1.71222,-2.42354 -2.30046,-3.76968 -0.52663,-1.38496 -0.70287,-2.75406 -0.15823,-4.14578 2.75195,-4.44794 6.86461,-4.69709 12.25892,-7.18476 0.44798,2.86275 0.94104,5.71487 1.54653,8.54851 0,0 -9.58694,5.10453 -9.58694,5.10453 v 0 c -0.40381,-2.65963 -0.75697,-5.35116 -1.59692,-7.91663 3.22364,-1.82144 6.39704,-3.73482 9.67093,-5.46432 0.17465,-0.0923 -0.17893,0.35449 -0.29739,0.51255 -0.51962,0.6933 -1.35719,1.09011 -1.76903,1.88441 -0.93802,0.93024 -0.72277,2.02054 -0.32845,3.19527 0.50871,1.23642 1.173,2.44952 2.0707,3.44421 0.93827,0.99774 1.61217,2.13729 2.38684,3.25137 0.91102,0.96316 1.94585,1.75025 2.93166,2.63514 1.06294,1.00984 2.24724,1.81587 3.56291,2.4663 1.38991,0.86496 2.83753,1.63329 4.52553,1.59431 1.7404,0.001 3.48076,-0.012 5.22116,-1.8e-4 1.90567,0.005 3.81132,0.008 5.7169,-0.0144 1.53684,0.008 3.07503,0.0171 4.60887,0.12408 1.68493,0.13555 3.35382,0.38269 5.02913,0.60198 1.52235,0.061 3.04994,-0.006 4.56614,-0.15452 1.32031,-0.17149 2.61544,-0.53382 3.94945,-0.56099 1.50719,0.003 3.01464,0.0116 4.52161,-0.0202 1.37274,-0.0445 2.76471,-0.0906 4.08678,-0.50149 1.11666,-0.40615 2.18846,-0.92144 3.35866,-1.17509 1.23485,-0.22306 2.41892,-0.5999 3.63921,-0.87504 1.24141,-0.27447 2.42123,-0.74575 3.66224,-1.02384 1.3301,-0.45727 2.62579,-1.02613 4.06014,-1.06434 1.32195,-0.12549 2.61683,-0.37361 3.91691,-0.63769 1.38763,-0.0854 2.78437,-0.11244 4.15279,-0.38524 1.37069,-0.26774 2.72551,-0.47384 4.13066,-0.36621 1.47822,-0.006 2.95863,-0.008 4.43316,-0.12553 1.31515,-0.1322 2.59981,-0.38915 3.88115,-0.7115 1.30214,-0.12988 2.60068,-0.28165 3.90039,-0.42906 1.32467,0.0591 2.48663,0.61475 3.24525,1.73406 0.66055,1.10268 1.18562,2.23959 1.51132,3.48952 0.54712,1.43575 0.90793,2.88453 0.6571,4.43282 -0.71467,5.34899 -6.39343,7.29991 -11.55864,8.24277 -1.31988,0.22727 -2.61299,0.60129 -3.95933,0.65171 -1.42327,0.21473 -2.77874,0.60816 -4.0275,1.34765 -1.37573,0.60192 -2.79854,0.9888 -4.29897,1.13752 -1.5041,0.27965 -2.99931,0.58632 -4.52058,0.76194 -1.36413,0.28179 -2.73252,0.58606 -4.06747,0.9768 -1.14646,0.5057 -2.22507,1.16564 -3.50716,1.2852 -1.50428,0.27952 -2.99961,0.58611 -4.52147,0.75864 -1.36503,0.27838 -2.73436,0.57661 -4.07219,0.95771 -1.14635,0.50171 -2.22151,1.16606 -3.4676,1.41941 -0.66495,0.22528 -0.79233,0.24514 -1.42886,0.55558 -0.23947,0.1168 -0.93448,0.51211 -0.70437,0.37782 18.4601,-10.77234 4.25555,-2.37489 -2.08892,1.21138 2.96686,-1.72958 5.93371,-3.45915 8.90057,-5.18873 -0.19711,0.12486 -0.40341,0.2363 -0.59134,0.37458 -0.18256,0.13433 -0.32934,0.31468 -0.51738,0.44123 -0.35481,0.23878 -0.8091,0.26123 -1.04719,0.64744 -1.14185,-1.00237 -0.5875,-0.96859 0.56381,-1.36438 1.21109,-0.17635 2.75611,-0.0657 2.56433,1.6231 -3.31074,1.92993 -6.60638,3.88599 -9.93222,5.78979 -0.3325,0.19034 -1.38356,0.65455 -1.05281,0.46118 3.02167,-1.7666 6.05341,-3.51594 9.08387,-5.26741 0.15805,-0.0913 -0.31096,0.19129 -0.46644,0.28694 -3.35503,1.93105 -6.71005,3.8621 -10.06508,5.79315 -1.10464,0.47377 -2.28229,0.7448 -3.43014,1.0904 -3.72629,1.70578 -0.44098,0.22247 8.55056,-5.02751 0.31004,-0.18102 -0.59237,0.40679 -0.90155,0.58927 -9.92508,5.85799 -6.31324,4.84621 -10.62034,5.9875 -1.25401,0.34397 -2.5396,0.47979 -3.79142,0.83204 -1.38352,0.422 -2.79814,0.67277 -4.23466,0.84711 -1.52361,0.0741 -3.04983,0.032 -4.57485,0.0391 -1.52568,-0.0129 -3.05493,-0.0287 -4.57251,-0.20357 -1.59826,-0.21399 -3.15358,-0.60675 -4.73283,-0.92088 -1.69045,-0.23687 -3.37422,-0.49122 -5.08844,-0.39027 -1.71025,-0.0242 -3.42354,-0.0693 -5.1217,-0.2918 -1.77763,-0.25782 -3.53981,-0.62146 -5.21212,-1.29647 -1.4771,-0.67895 -2.91691,-1.438 -4.39169,-2.12293 -1.36681,-0.57242 -2.74219,-1.1157 -4.17415,-1.50826 -1.39309,-0.36627 -2.83018,-0.61027 -3.88229,-1.6915 -1.19745,-1.29444 -2.29987,-2.6748 -3.46703,-3.99625 -1.27644,-1.68264 -2.47347,-3.43118 -3.87088,-5.01905 0,0 9.64842,-5.72586 9.64842,-5.72586 z"
       inkscape:connector-curvature="0" />
    <path
       style="fill:#28170b;stroke-width:0.26458332"
       id="path4600"
       d="m -246.89242,158.39165 c 0.0692,-2.31335 0.18188,-4.64055 10e-4,-6.9503 -0.25543,-1.92518 -0.48185,-3.85325 -0.61871,-5.79065 -0.18161,-1.44111 0.17058,-2.84824 0.38584,-4.26195 0.0997,-1.45874 0.50814,-2.83154 1.11222,-4.15243 0.84295,-1.21435 1.59763,-2.45006 2.24218,-3.78404 0.67855,-1.25268 1.66344,-2.28027 2.64456,-3.29517 0.46669,-0.37797 0.93792,-0.81152 1.4608,-1.11474 3.35844,-1.9476 6.73297,-3.86739 10.10856,-5.78511 3.03946,-1.72676 -12.09173,7.02071 -9.10017,5.21222 3.31498,-2.00399 6.71378,-3.86594 10.07066,-5.79891 -3.03928,1.75044 -6.06851,3.51847 -9.11786,5.25133 -0.15947,0.0906 0.28704,-0.23058 0.44545,-0.32304 3.34613,-1.95286 6.68533,-3.91856 10.06572,-5.81149 0.50017,-0.28008 1.28582,-0.28473 1.83538,-0.48023 1.31978,-0.60894 2.46728,-1.44467 3.87185,-1.86127 0.18301,-0.10391 0.73176,-0.41614 0.54904,-0.31172 -3.00445,1.71695 -6.00617,3.43868 -9.01422,5.1493 -0.19565,0.11127 0.38128,-0.23956 0.57679,-0.35108 3.38944,-1.93335 6.76049,-3.89974 10.17781,-5.78337 0.8783,-0.25821 0.46974,-0.0835 1.23121,-0.51107 -3.00102,1.71411 -5.99917,3.43326 -9.00307,5.14233 -0.19856,0.11298 0.3908,-0.2367 0.58687,-0.35393 0.66836,-0.3996 1.29698,-0.87719 1.96758,-1.26757 3.39675,-1.97734 6.81339,-3.92032 10.22009,-5.88048 -0.50422,0.18652 1.93506,-0.98991 1.46558,-0.71575 -23.63717,13.80358 1.38698,-1.01957 1.54026,-0.85205 0.33537,0.3665 0.46196,0.87964 0.69294,1.31946 -0.0486,0.12134 -0.0589,0.26637 -0.14573,0.36402 -0.0893,0.10033 -0.50874,-0.66024 -0.24729,-0.99332 0.33141,-0.42222 0.87566,-0.54655 1.33945,-0.73277 1.89884,-1.08426 3.85159,-2.15581 5.87936,-2.99001 1.50932,-0.5549 3.11515,-0.62624 4.70461,-0.66577 1.50703,-0.0173 3.0142,-5.3e-4 4.52125,0.007 1.51064,0.007 3.0213,0.009 4.53195,0.0102 1.53098,0.1517 2.98444,-0.16131 4.47944,-0.41554 1.88585,-0.13393 3.72703,-0.56278 5.59795,-0.81981 1.66695,-0.21499 3.34822,-0.25621 5.02662,-0.2779 1.66703,-0.0109 3.33403,0.006 5.00109,0.006 1.61015,-7.9e-4 3.2203,-0.003 4.83044,-0.004 3.98276,0.007 10.62057,-5.92205 -7.67413,4.97495 -0.0839,0.0499 0.12451,0.22501 0.21764,0.19583 0.0957,-0.03 0.0545,-0.19307 0.0817,-0.28961 0.3047,-1.15948 0.72483,-2.28627 1.22956,-3.37367 0.85591,-1.36539 1.94381,-2.57109 2.86385,-3.89955 0.8576,-1.28051 1.74295,-2.54067 2.60843,-3.81548 0.87742,-1.16021 1.42395,-2.430446 1.71606,-3.845572 0.31876,-1.2718 0.60952,-2.54384 0.86271,-3.830799 0.32295,-1.175899 0.63413,-2.346389 1.03851,-3.496813 0.0968,-0.998344 0.90603,-1.919671 0.83139,-2.928033 -0.13716,0.08117 -0.22745,0.142807 -0.41096,0.171876 -0.17521,0.02775 -1.25803,0.03382 -1.33537,0.04231 -0.58887,0.06469 -1.16404,0.221017 -1.74614,0.331078 -1.87919,0.353883 -3.7931,0.475869 -5.70055,0.559377 -1.85018,0.09436 -3.66102,0.07273 -5.48567,-0.234201 -1.53592,-0.284957 -3.09372,-0.389412 -4.65205,-0.445522 -1.35951,-0.05348 -2.66677,-0.477218 -4.02211,-0.637691 -1.71488,-0.272401 -3.39882,0.01498 -5.09845,0.233887 -1.81029,0.09542 -3.43831,0.929031 -5.17368,1.345927 -1.64703,0.431017 -3.1933,1.127321 -4.81263,1.630024 -3.40564,1.843857 -7.86853,4.351099 7.98129,-4.603512 0.2032,-0.114805 -0.39019,0.256236 -0.58422,0.385953 -0.97465,0.651592 -0.27168,0.203364 -1.30911,0.846384 -22.036,12.732777 -6.00043,3.462306 -1.43907,0.843986 0.25622,-0.147071 -0.5075,0.302586 -0.75947,0.456817 -0.60962,0.37316 -0.88932,0.565811 -1.50976,0.924816 -3.41697,1.977163 -6.83919,3.945239 -10.25879,5.917859 22.94789,-13.233654 -1.06013,0.622594 -1.59601,0.923705 -0.63462,0.356598 -1.35023,0.548582 -2.00078,0.875215 -0.33296,0.167177 -1.30626,0.717151 -0.98364,0.530792 2.82722,-1.633136 5.66522,-3.247554 8.49783,-4.871331 -4.63541,4.275023 -7.73941,4.786029 -12.1577,6.721838 -0.71005,0.3111 -1.33639,0.66429 -2.0784,0.91003 -3.55665,2.17318 0.28959,-0.18401 8.48066,-4.833241 0.19214,-0.109061 -0.37137,0.239464 -0.55704,0.35922 -0.53996,0.348268 -1.03691,0.738626 -1.55364,1.120248 -3.97585,3.450693 -8.88746,5.484503 -13.4081,8.143453 -0.21004,0.0973 -0.41494,0.20653 -0.63011,0.29187 -1.61466,0.64042 0.23772,-0.22947 -1.17145,0.54187 -0.17662,0.0967 -0.72023,0.35923 -0.54597,0.25837 9.83647,-5.69327 11.96402,-7.169908 8.61347,-4.8752 -1.01166,0.81685 -1.9683,1.69135 -3.03272,2.44142 -1.05954,0.7977 -1.636,2.01507 -2.54587,2.95558 -0.88241,0.99563 -1.88615,1.8666 -2.89304,2.73129 -0.97084,1.19574 -2.26625,1.99133 -3.47824,2.90553 -0.98141,0.90194 -2.13019,1.58809 -3.15256,2.43778 -0.92378,0.6141 -1.58671,1.45469 -2.26949,2.30452 -0.75752,0.75715 -1.59958,1.42048 -2.35745,2.17618 -0.76109,0.77803 -1.61306,1.42427 -2.52294,2.0187 -4.19799,3.79766 -4.4477,3.16748 -12.30676,7.39181 -1.15871,-0.90956 -1.18901,-2.355 -1.23923,-3.71119 -0.0888,-2.21876 -0.36693,-4.36926 -1.09738,-6.46669 -0.69043,-1.65409 -0.94352,-3.40015 -1.09012,-5.17113 -0.11791,-1.78715 -0.0942,-3.57974 -0.0994,-5.36981 0.0208,-1.6341 -0.0636,-3.27124 0.0584,-4.90182 0.13349,-1.58148 0.50079,-2.98023 1.52802,-4.206127 0.18499,-0.173183 0.36999,-0.346366 0.55498,-0.519549 0,0 10.35288,-4.126126 10.35288,-4.126126 v 0 c -0.20433,0.12337 -0.40866,0.246742 -0.61299,0.370112 -1.2544,1.076148 -1.68703,1.85787 -1.84357,3.544665 -0.26835,1.580015 -0.0635,3.202145 -0.14363,4.798925 -0.009,1.76511 -0.0112,3.53093 0.0652,5.29482 0.10647,1.68478 0.3212,3.35097 0.92878,4.9399 0.71821,2.19374 1.03187,4.42586 1.29595,6.71494 0.001,0.0211 0.0832,2.67158 0.3508,2.07755 -3.12916,1.77576 -6.27558,3.52146 -9.38749,5.32729 -0.14448,0.0838 0.32959,-0.076 0.47621,-0.15609 0.70691,-0.38596 1.19668,-1.15891 1.8236,-1.64708 0.77444,-0.78238 1.85418,-1.11748 2.53275,-1.99314 0.8553,-0.63433 1.55598,-1.46127 2.37028,-2.14376 0.56592,-0.36787 0.68893,-0.65799 1.05015,-1.20772 0.41372,-0.62964 0.26995,-0.27581 0.7996,-0.76216 0.14449,-0.13267 0.26163,-0.29236 0.39244,-0.43854 1.10142,-0.75914 2.09326,-1.67332 3.23059,-2.39116 1.0836,-1.06718 2.51911,-1.63349 3.47937,-2.82286 0.87225,-0.99612 2.02296,-1.68915 2.8942,-2.68702 1.90763,-2.11501 -1.07907,1.14547 0.90492,-0.85216 0.65185,-0.65633 0.91814,-1.61206 1.58843,-2.26356 1.12873,-0.99457 -0.13366,0.0603 1.08803,-0.78796 0.53505,-0.37148 0.95349,-0.83454 1.43507,-1.25777 0.1561,-0.13718 0.3391,-0.2403 0.50864,-0.36045 3.48962,-3.53383 8.40613,-5.18906 12.78407,-7.391358 3.74583,-1.809147 0.4303,-0.228362 -8.1839,4.826918 -0.23,0.13497 0.48045,-0.23345 0.70809,-0.37235 0.6532,-0.39857 0.69618,-0.50599 1.26804,-1.00498 0.18434,-0.16085 0.37311,-0.31652 0.55967,-0.47478 3.90362,-3.04682 8.11108,-5.882042 12.77847,-7.658481 3.90497,-1.708274 11.45599,-5.656329 -4.84983,3.214248 3.47458,-2.000387 6.93796,-4.020349 10.42374,-6.001168 0.45692,-0.259646 1.55649,-0.73873 2.02828,-0.971018 0.32188,-0.158485 1.2646,-0.67787 0.95484,-0.496821 -1.07794,0.630047 -24.56754,14.17422 1.62668,-0.932098 -29.14671,16.912258 24.8667,-14.585294 -5.04831,2.86463 4.21115,-2.725957 8.38749,-5.711505 13.08456,-7.50375 1.58194,-0.58439 3.19252,-1.070327 4.8098,-1.549008 1.72142,-0.544772 3.44043,-1.102114 5.26024,-1.204905 1.77645,-0.208457 3.55708,-0.348607 5.33476,-0.04572 1.31261,0.211373 2.60365,0.586189 3.94376,0.569219 1.57581,0.09585 3.14261,0.272031 4.69776,0.548616 1.77514,0.228463 3.56355,0.142444 5.34777,0.06239 1.88361,-0.107252 3.76102,-0.290909 5.61441,-0.656071 1.52038,-0.224608 3.49439,-0.64838 4.5107,0.801377 0.38473,1.301946 -0.28584,2.251292 -0.60107,3.482467 -0.33278,1.166167 -0.81491,2.26472 -1.06105,3.459105 -0.44386,1.20311 -0.37199,2.563085 -0.93921,3.744735 -0.20964,1.52024 -0.56586,3.005076 -1.52208,4.247409 -0.80817,1.339313 -1.73534,2.576034 -2.6598,3.837484 -0.8036,1.3624 -1.73318,2.65632 -2.84349,3.77662 -0.55849,0.97631 -0.9111,1.99216 -1.28381,3.04013 -0.0112,0.10861 -0.0438,0.21712 -0.0336,0.32582 0.0193,0.20402 0.29438,0.49307 0.12124,0.6027 -6.39786,4.05085 -6.91474,5.72836 -11.84403,5.65878 -1.60346,-0.002 -3.20691,-0.006 -4.81036,-0.0124 -1.66926,-0.004 -3.33852,-0.002 -5.0076,0.0261 -1.64024,0.0402 -3.28195,0.11555 -4.90625,0.36301 -1.87452,0.28902 -3.74037,0.62916 -5.6222,0.86843 -1.52496,0.25345 -3.04624,0.32968 -4.59264,0.26715 -1.51163,-0.002 -3.02326,-0.005 -4.53488,-0.0134 -1.49666,-0.007 -2.99439,-0.0254 -4.49013,0.0387 -1.51937,0.0996 -3.02823,0.3015 -4.41849,0.96856 -1.9829,0.94767 -3.93031,1.96629 -5.88316,2.97285 -0.3524,0.15878 -1.19512,0.6088 -1.65233,0.57365 -0.47003,-0.0361 -1.40591,-0.80297 -1.11768,-1.34991 0.0382,-0.0724 0.15757,-0.0446 0.23635,-0.0668 0.27515,0.34884 0.6465,0.63985 0.82544,1.04651 0.0449,0.10192 -0.40225,0.18991 -0.30607,0.13382 11.02638,-6.43091 13.63761,-7.80776 -1.1639,0.61481 -0.47082,0.26791 -0.97393,0.47642 -1.43733,0.7584 2.93971,-1.71091 5.87684,-3.42627 8.81914,-5.13273 0.2306,-0.13374 -0.46362,0.26442 -0.68391,0.41453 -0.61585,0.41965 -1.17771,0.84832 -1.82635,1.22112 -3.38316,1.9444 -6.76435,3.89222 -10.14653,5.83834 -0.41011,0.15907 -1.59315,0.74052 -1.21385,0.51774 19.58193,-11.50141 3.00641,-1.3336 -2.35563,1.21093 -1.30662,0.59924 -2.51163,1.42047 -3.90884,1.81807 -0.4517,0.12647 -0.80119,0.20521 -1.22754,0.39361 -0.17405,0.0769 -0.66991,0.36096 -0.50573,0.26477 3.02159,-1.77017 6.04897,-3.53045 9.07846,-5.28705 0.15638,-0.0907 -0.30585,0.19273 -0.45878,0.28909 -3.33381,1.96414 -6.66761,3.92828 -10.00142,5.89242 23.58135,-13.64603 -0.24745,0.15255 -0.99511,0.54472 -3.08862,1.62011 6.03168,-3.50375 9.04557,-5.25899 1.34722,-0.7846 -2.71767,1.79705 -1.54109,0.95666 -1.08472,0.84856 -1.94322,1.90881 -2.83121,2.95486 -0.73977,1.25781 -1.09191,2.75717 -2.22533,3.76009 -0.68594,1.17416 -1.21249,2.42745 -1.26924,3.80518 -0.16428,1.36887 -0.58887,2.7116 -0.52967,4.09151 0.0955,1.94373 0.28679,3.87772 0.54225,5.80704 0.18325,2.31394 0.0363,4.63692 0.18226,6.95395 0,0 -9.97532,5.08268 -9.97532,5.08268 z"
       inkscape:connector-curvature="0" />
  </g>
</svg>
